<?xml version="1.0" standalone="no"?>
<!DOCTYPE svg PUBLIC "-//W3C//DTD SVG 20010904//EN"
 "http://www.w3.org/TR/2001/REC-SVG-20010904/DTD/svg10.dtd">
<svg version="1.0" xmlns="http://www.w3.org/2000/svg"
 width="300.000000pt" height="300.000000pt" viewBox="0 0 300.000000 300.000000"
 preserveAspectRatio="xMidYMid meet">
<metadata>
Created by potrace 1.11, written by Peter Selinger 2001-2013
</metadata>
<g transform="translate(0.000000,300.000000) scale(0.100000,-0.100000)"
fill="#000000" stroke="none">
<path d="M1178 2198 c-34 -12 -53 -70 -45 -137 4 -39 2 -47 -20 -65 -43 -34
-110 -132 -138 -205 -21 -53 -34 -72 -54 -81 -34 -14 -75 -49 -89 -77 -7 -12
-12 -41 -12 -66 0 -47 22 -77 72 -96 25 -9 26 -13 27 -83 2 -211 91 -472 206
-607 l45 -53 -32 -22 c-18 -11 -40 -36 -48 -53 -11 -24 -27 -37 -60 -48 -25
-8 -68 -28 -97 -44 l-51 -28 -61 30 c-112 55 -256 48 -389 -18 -118 -60 -194
-148 -232 -272 -33 -108 -23 -273 17 -273 12 0 14 7 9 32 -25 125 -16 198 37
306 30 62 52 82 42 39 -33 -152 -56 -304 -50 -338 l7 -39 304 0 304 0 0 78
c-1 42 -5 97 -10 122 -4 25 -7 46 -5 48 7 7 61 -27 85 -53 22 -23 25 -37 29
-111 l3 -84 1014 0 1014 0 0 274 0 275 -72 36 c-202 99 -412 79 -579 -57 l-56
-46 -17 49 c-10 27 -27 61 -39 75 -26 33 -108 72 -170 80 -40 6 -50 12 -63 36
-16 32 -100 77 -144 79 -14 0 -33 4 -43 8 -17 6 -17 8 2 33 37 46 79 148 92
219 10 54 10 124 1 327 -10 217 -16 272 -37 356 -66 257 -179 369 -389 383
l-78 6 5 39 5 38 -106 -1 c-59 0 -119 -5 -134 -11z m28 -315 c8 -32 -13 -76
-40 -81 -28 -6 -63 6 -70 24 -8 21 18 62 47 74 39 16 56 11 63 -17z m-106
-123 c0 -5 -12 -10 -27 -10 -22 0 -25 2 -13 10 20 13 40 13 40 0z m413 -31
c117 -18 168 -54 166 -116 l-1 -38 -13 30 c-7 17 -25 40 -38 52 -37 32 -149
66 -242 73 l-80 7 68 1 c38 1 101 -3 140 -9z m-375 -116 c2 -20 -2 -32 -12
-36 -23 -9 -40 27 -26 54 15 28 34 19 38 -18z m264 12 c8 -19 8 -29 0 -37 -16
-16 -42 -2 -42 25 0 43 24 50 42 12z m-307 -185 c4 -6 9 -44 12 -85 7 -86 -3
-94 -56 -49 -26 22 -61 100 -61 136 0 12 98 10 105 -2z m-25 -902 c1 -29 6
-80 13 -113 l12 -60 62 -31 c35 -17 92 -36 127 -42 79 -15 321 -16 384 -1 106
24 140 34 199 60 64 29 67 29 168 -1 37 -11 38 -13 20 -26 -22 -16 -117 -48
-209 -70 -146 -35 -470 -54 -591 -35 -177 29 -291 68 -345 118 -14 13 -28 23
-32 23 -13 0 -29 71 -23 101 7 33 71 80 150 111 63 25 65 24 65 -34z m-430 8
c0 -21 -51 -57 -150 -106 -48 -24 -104 -61 -127 -85 -24 -24 -43 -37 -43 -29
0 30 42 138 58 151 22 16 109 59 147 72 48 15 115 14 115 -3z"/>
</g>
</svg>
